<?xml version="1.0" encoding="UTF-8" standalone="no"?>
<!-- Created with Inkscape (http://www.inkscape.org/) -->

<svg
   width="210mm"
   height="297mm"
   viewBox="0 0 210 297"
   version="1.1"
   id="svg1"
   xml:space="preserve"
   inkscape:version="1.4.2 (ebf0e940, 2025-05-08)"
   sodipodi:docname="house_without_spire.svg"
   inkscape:export-filename="house_without_spire.png"
   inkscape:export-xdpi="96"
   inkscape:export-ydpi="96"
   xmlns:inkscape="http://www.inkscape.org/namespaces/inkscape"
   xmlns:sodipodi="http://sodipodi.sourceforge.net/DTD/sodipodi-0.dtd"
   xmlns="http://www.w3.org/2000/svg"
   xmlns:svg="http://www.w3.org/2000/svg"><sodipodi:namedview
     id="namedview1"
     pagecolor="#505050"
     bordercolor="#eeeeee"
     borderopacity="1"
     inkscape:showpageshadow="0"
     inkscape:pageopacity="0"
     inkscape:pagecheckerboard="0"
     inkscape:deskcolor="#505050"
     inkscape:document-units="mm"
     showgrid="false"
     inkscape:zoom="1.4992291"
     inkscape:cx="413.21236"
     inkscape:cy="285.14655"
     inkscape:window-width="1512"
     inkscape:window-height="916"
     inkscape:window-x="0"
     inkscape:window-y="38"
     inkscape:window-maximized="0"
     inkscape:current-layer="layer1"><inkscape:grid
       id="grid1"
       units="mm"
       originx="0"
       originy="0"
       spacingx="0.99999998"
       spacingy="1"
       empcolor="#0099e5"
       empopacity="0.30196078"
       color="#0099e5"
       opacity="0.14901961"
       empspacing="5"
       enabled="true"
       visible="false" /></sodipodi:namedview><defs
     id="defs1"><filter
       style="color-interpolation-filters:sRGB;"
       inkscape:label="Drop Shadow"
       id="filter83"
       x="-0.011968891"
       y="-0.10104774"
       width="1.0289248"
       height="1.2441987"><feFlood
         result="flood"
         in="SourceGraphic"
         flood-opacity="0.498039"
         flood-color="rgb(0,0,0)"
         id="feFlood82" /><feGaussianBlur
         result="blur"
         in="SourceGraphic"
         stdDeviation="1.000000"
         id="feGaussianBlur82" /><feOffset
         result="offset"
         in="blur"
         dx="1.000000"
         dy="1.000000"
         id="feOffset82" /><feComposite
         result="comp1"
         operator="out"
         in="flood"
         in2="offset"
         id="feComposite82" /><feComposite
         result="fbSourceGraphic"
         operator="atop"
         in="comp1"
         in2="SourceGraphic"
         id="feComposite83" /><feColorMatrix
         result="fbSourceGraphicAlpha"
         in="fbSourceGraphic"
         values="0 0 0 -1 0 0 0 0 -1 0 0 0 0 -1 0 0 0 0 1 0"
         id="feColorMatrix83" /><feFlood
         id="feFlood83"
         result="flood"
         in="fbSourceGraphic"
         flood-opacity="0.498039"
         flood-color="rgb(0,0,0)" /><feGaussianBlur
         id="feGaussianBlur83"
         result="blur"
         in="fbSourceGraphic"
         stdDeviation="1.000000" /><feOffset
         id="feOffset83"
         result="offset"
         in="blur"
         dx="1.000000"
         dy="1.000000" /><feComposite
         id="feComposite84"
         result="comp1"
         operator="out"
         in="flood"
         in2="offset" /><feComposite
         id="feComposite85"
         result="comp2"
         operator="atop"
         in="comp1"
         in2="fbSourceGraphic" /></filter><filter
       style="color-interpolation-filters:sRGB;"
       inkscape:label="Drop Shadow"
       id="filter102"
       x="-0.0078495593"
       y="-0.075604835"
       width="1.0189698"
       height="1.1827117"><feFlood
         result="flood"
         in="SourceGraphic"
         flood-opacity="0.498039"
         flood-color="rgb(0,0,0)"
         id="feFlood101" /><feGaussianBlur
         result="blur"
         in="SourceGraphic"
         stdDeviation="1.000000"
         id="feGaussianBlur101" /><feOffset
         result="offset"
         in="blur"
         dx="1.000000"
         dy="1.000000"
         id="feOffset101" /><feComposite
         result="comp1"
         operator="out"
         in="flood"
         in2="offset"
         id="feComposite101" /><feComposite
         result="comp2"
         operator="in"
         in="SourceGraphic"
         in2="comp1"
         id="feComposite102" /></filter></defs><g
     inkscape:label="Layer 1"
     inkscape:groupmode="layer"
     id="layer1"><g
       id="g5"
       inkscape:export-filename="no_background_small.png"
       inkscape:export-xdpi="96"
       inkscape:export-ydpi="96"><g
         id="g1"
         transform="translate(-8.3539475)"><path
           fill="#000000"
           opacity="1"
           stroke="none"
           d="m 165.02978,71.810307 c -4.55272,23.007743 -24.6381,40.825873 -47.90974,41.943433 -20.709478,0.99451 -37.129548,-7.34661 -48.606778,-24.640197 -6.00198,-9.043649 -8.41005,-19.282023 -7.96147,-30.18165 0.50196,-12.196802 4.66439,-22.961809 12.4885,-32.280198 8.14123,-9.696074 18.40288,-15.909033 30.920618,-18.1704455 6.51511,-1.177007 13.09962,-1.28691 19.58007,0.06149 7.17083,1.4920525 13.90573,4.2007475 19.9175,8.5007615 0.74759,0.534723 1.5483,0.988954 2.20135,1.667851 0.65456,0.680453 1.4999,0.874863 2.43698,0.613601 5.36252,-1.495134 9.14956,4.073318 7.94549,7.882847 -0.48121,1.522421 -0.1542,2.722271 0.75472,4.046206 5.48319,7.986895 8.44005,16.903457 9.26968,26.513603 0.40336,4.672409 -0.0878,9.322215 -1.03692,14.042702 m -95.446428,14.65472 c 1.13675,1.71904 2.17567,3.513458 3.4304,5.141566 2.69615,3.498509 5.88959,6.566535 9.29975,9.323633 5.07586,4.10387 10.84736,6.98334 17.1529,8.82328 6.655018,1.94193 13.400518,2.63964 20.261558,1.75924 10.63343,-1.36445 19.91447,-5.70856 27.81156,-12.986455 7.28073,-6.709802 12.33838,-14.804707 14.79388,-24.39213 1.62835,-6.357874 2.14685,-12.868363 1.21934,-19.412045 -1.26656,-8.935496 -4.39344,-17.129848 -10.01679,-24.272116 -0.59886,-0.760595 -0.53578,-1.305266 -0.0624,-2.103427 1.17058,-1.973524 1.01903,-4.009702 -0.25386,-5.551588 -1.31206,-1.589317 -3.2798,-2.280184 -5.22437,-1.344694 -1.49346,0.718484 -2.287,0.127608 -3.33375,-0.702969 -11.90429,-9.445844 -25.42935,-12.8542605 -40.32326,-10.194819 -13.775418,2.45972 -24.527048,9.856666 -32.587858,21.22389 -6.05489,8.538517 -8.87566,18.127509 -9.01715,28.526309 -0.12609,9.268851 2.17922,17.938559 6.85001,26.162325 z"
           id="path1"
           style="fill:#a7a9a7;fill-opacity:1;stroke-width:0.264583"
           sodipodi:nodetypes="cssssssssssssccscssssssssscsssc" /><path
           fill="#000000"
           opacity="1"
           stroke="none"
           d="m 140.74458,74.767272 c 0.0409,2.967947 0.0686,5.829601 0.12175,8.690773 0.0181,0.975892 -0.4298,1.374916 -1.37845,1.26854 -0.26271,-0.02946 -0.52664,-0.05033 -0.79049,-0.06729 -2.89133,-0.185441 -2.88654,-0.185034 -2.90078,-3.151481 -0.0367,-7.655653 -0.09,-15.311271 -0.10143,-22.966953 -0.001,-0.875326 -0.28152,-1.494776 -0.93115,-2.061001 -6.50999,-5.674285 -13.01868,-11.350259 -19.48626,-17.072663 -0.79222,-0.689517 -1.43087,-0.485841 -2.12146,0.135536 l -16.510818,14.25071 -1.99897,1.720455 c -1.71149,1.473026 -2.14533,2.864753 -2.12233,4.850734 0.0872,7.525371 0.10091,15.051627 0.13375,22.577594 0.007,1.671539 -0.0803,1.788504 -1.79196,1.762974 -3.49688,-0.0522 -3.23804,0.700744 -3.25015,-3.209425 -0.0193,-6.248458 -0.0281,-12.496985 -0.0177,-18.745435 0.002,-1.071399 -0.26468,-1.481408 -1.51914,-1.523921 -4.79458,-0.162483 0.0302,0.03018 -4.78911,-0.151781 l 27.979228,-25.072967 4.73299,-4.111344 5.08949,4.111344 c 8.90572,7.540884 18.15657,16.181816 26.94594,23.860056 0.29238,0.255418 0.65309,0.472395 0.63441,1.164193 -1.38862,0.02064 -2.79388,0.06444 -4.19885,0.0565 -1.70645,-0.0097 -1.66193,-0.02635 -1.7456,1.702337 -0.19172,3.959934 0.0734,7.917371 0.0171,11.98236 z"
           id="path22"
           style="fill:#a7a9a7;fill-opacity:1;stroke-width:0.264583"
           sodipodi:nodetypes="ssssssssccsssssssccccscssss" /><path
           fill="#000000"
           opacity="1"
           stroke="none"
           d="m 71.029902,40.872204 c -3.12593,7.09666 -4.57786,14.387526 -4.31542,22.062996 0.3668,10.728021 4.11226,20.143848 10.93816,28.293557 4.90577,5.857211 10.94073,10.404553 18.09675,13.179853 10.237958,3.97055 20.729808,4.93818 31.317308,1.45637 15.43277,-5.07522 25.94157,-15.408422 30.75578,-30.852326 4.72143,-15.146388 2.01748,-29.356082 -7.44988,-42.19103 -0.3101,-0.420407 -1.16601,-0.834445 -0.39257,-1.517605 0.79276,-0.700212 1.40124,-0.174461 1.86619,0.472681 2.10553,2.930636 4.20985,5.859666 5.53949,9.261515 1.78107,4.556852 3.3349,9.140809 3.98519,14.051121 0.78459,5.924442 0.15151,11.692819 -1.06972,17.452597 -1.29057,6.086832 -3.91338,11.601804 -7.55058,16.605823 -8.12182,11.173934 -18.97942,17.926794 -32.71511,19.905464 -23.760438,3.42279 -47.259848,-11.699628 -53.525578,-35.817574 -2.00358,-7.712183 -2.0365,-15.481432 -0.26305,-23.287108 2.18539,-9.61879 6.91176,-17.782041 13.94818,-24.583922 6.68093,-6.458262 14.63922,-10.784038 23.758198,-12.569084 8.39318,-1.642957 16.72829,-0.946983 24.92326,1.671034 5.45306,1.74207 10.28728,4.520703 14.79718,7.956317 0.27448,0.209095 0.56184,0.454951 0.72151,0.749639 0.31164,0.575257 0.14621,1.132792 -0.33262,1.547011 -0.47524,0.411123 -0.80741,-0.01841 -1.13501,-0.290002 -3.654,-3.029664 -7.60564,-5.574329 -12.04247,-7.305876 -14.61832,-5.704991 -28.66916,-4.467167 -42.056978,3.659516 -7.94357,4.821898 -13.69289,11.678054 -17.79821,20.089033 z"
           id="path23"
           style="fill:#a7a9a7;fill-opacity:1;stroke-width:0.264583"
           sodipodi:nodetypes="cssssssssssssssssssssscssc" /><path
           fill="#000000"
           opacity="1"
           stroke="none"
           d="m 104.52823,52.946328 c 2.86524,-2.815186 5.70615,-5.522527 8.43397,-8.339382 0.9533,-0.984406 1.54268,-0.897202 2.45255,0.0029 5.13723,5.081786 10.26207,10.179165 15.52707,15.126568 1.3865,1.30287 1.91827,2.578968 1.90609,4.435719 -0.0401,6.118476 0.0925,12.238 0.14996,18.357209 0.0195,2.08398 -0.0318,2.190316 -2.06473,2.143315 -3.13859,-0.07257 -2.85996,0.575331 -2.90336,-2.7569 -0.0733,-5.62974 -0.0759,-11.260391 -0.12447,-16.89051 -0.006,-0.735058 0.002,-1.456145 -0.62822,-2.066645 -3.98663,-3.864409 -7.96455,-7.738565 -11.88813,-11.666664 -0.84522,-0.846185 -1.34419,-0.737277 -2.13813,0.04015 -3.96655,3.884055 -7.97952,7.720857 -11.9939,11.555728 -0.54615,0.521724 -0.78064,1.04241 -0.77383,1.836324 0.0531,6.203874 0.0291,12.408382 0.0601,18.612546 0.005,0.992407 -0.32612,1.503249 -1.370238,1.402821 -0.30668,-0.02949 -0.6159,-0.04732 -0.92388,-0.04629 -3.30963,0.01066 -2.66299,0.138162 -2.68982,-2.924889 -0.0547,-6.24691 -0.0218,-12.494642 -0.0919,-18.741285 -0.0106,-0.939969 0.27855,-1.573989 0.92428,-2.19253 2.70514,-2.591196 5.381108,-5.212832 8.136548,-7.888107 z"
           id="path24"
           style="fill:#1a3e52;fill-opacity:1;stroke-width:0.264583"
           sodipodi:nodetypes="cscsssssscssscsscsssc" /><path
           fill="#000000"
           opacity="1"
           stroke="none"
           d="m 106.62168,92.251602 c -0.22287,-9.671121 -0.19819,-19.099903 -0.17429,-28.472593 0.002,-0.786836 0.2858,-1.022678 0.9779,-1.027353 l 16.2319,-0.120639 c 0.71862,-0.0053 1.05601,0.330472 1.06555,1.031592 5.3e-4,0.044 0.004,0.08798 0.007,0.131945 -0.006,0.502102 0.039,-0.03253 0.01,3.803695 0,0 -2.86006,0.01685 -3.45054,0.01082 l -7.90953,-0.08098 c -1.65315,-0.01693 -1.58221,0.03536 -1.55298,1.80105 l 0.0176,1.06403 c 0.0383,2.31013 0.28365,2.552078 1.48922,2.540021 l 5.93817,-0.05938 c 1.33774,-0.01339 1.12316,0.09911 1.13695,1.373817 l 0.0371,3.434395 -5.14916,0.03297 c -0.92294,0.0059 -1.84661,0.04824 -2.7685,0.02217 -0.76238,-0.02154 -0.98271,0.328184 -0.97149,1.044469 0.055,3.5155 0.0809,7.031487 0.10925,10.547371 0.0145,1.803519 -0.001,3.607401 0.0245,5.410721 0.006,0.406249 0.002,1.188723 -0.009,1.187985 l -1.06688,-0.02289 h -1.38296 c -1.66227,-0.01447 -2.6278,-0.01595 -2.6278,-0.01595 0.0328,-3.667885 -0.0155,-1.881931 0.0173,-3.637317 z"
           id="path25"
           style="fill:#1a3e52;fill-opacity:1;stroke-width:0.264583"
           sodipodi:nodetypes="cscsscsssssssscsssssccsscc" /><path
           fill="#000000"
           opacity="1"
           stroke="none"
           d="m 146.20447,86.572308 c 0.56876,1.426636 0.31071,2.842027 0.33842,4.232584 0.0137,0.686324 -0.62881,0.557713 -1.11515,0.560147 -4.70701,0.02373 -9.41391,0.06621 -14.12093,0.08782 -4.75093,0.0218 -9.50238,-0.0045 -14.25262,0.06131 -1.06694,0.01479 -1.40481,-0.354769 -1.39954,-1.366911 0.0133,-2.553483 -0.009,-5.108102 -0.0799,-7.66054 -0.027,-0.976251 0.30269,-1.359429 1.29638,-1.288245 0.91973,0.0659 1.84906,0.0021 2.77405,-0.01236 0.65248,-0.01021 0.95568,0.25087 0.9337,0.952865 -0.0317,1.011663 0.0601,2.027049 0.032,3.038985 -0.0268,0.966283 0.36812,1.323256 1.34182,1.308653 4.53435,-0.06798 9.06853,0.03504 13.6051,-0.0939 3.51268,-0.09985 7.033,0.06928 10.64669,0.179594 z"
           id="path26"
           style="fill:#1a3e52;fill-opacity:1;stroke-width:0.264583"
           sodipodi:nodetypes="cscsscsssssssc" /><path
           fill="#000000"
           opacity="1"
           stroke="none"
           d="m 91.744282,91.41513 c -3.0151,-0.0083 -5.916,-0.06619 -8.81261,0.02 -1.06862,0.03181 -1.31305,-0.383873 -1.26309,-1.297215 0.0383,-0.701643 0.11969,-1.422625 0.007,-2.106144 -0.21344,-1.293767 0.39133,-1.577583 1.52729,-1.576258 6.54525,0.0076 13.09078,-0.0016 19.635588,-0.06625 1.07509,-0.01061 1.4544,0.295984 1.48621,1.386345 0.10393,3.560688 0.14032,3.581067 -3.37592,3.623956 -3.029138,0.03695 -6.058948,0.01757 -9.204388,0.01556 z"
           id="path27"
           style="fill:#1a3e52;fill-opacity:1;stroke-width:0.264583"
           sodipodi:nodetypes="csssssssc" /><path
           fill="#000000"
           opacity="1"
           stroke="none"
           d="m 97.502542,44.101156 -1.74428,0.100758 -0.0634,2.655324 -5.16484,4.137867 0.0369,-10.053051 c 0.004,-1.150202 0.15036,-1.705887 1.57581,-1.727967 l 6.89434,-0.006 1.313198,-0.03976 -0.002,2.822369 0.002,1.957792 z"
           id="path28"
           style="fill:#1a3e52;fill-opacity:1;stroke-width:0.264583"
           sodipodi:nodetypes="ccccssccccc" /><path
           fill="#000000"
           opacity="1"
           stroke="none"
           d="m 131.26203,44.101156 1.74428,0.100758 0.0634,2.655324 5.16484,4.137867 -0.0369,-10.053051 c -0.004,-1.150202 -0.15036,-1.705887 -1.57581,-1.727967 l -6.89434,-0.006 -1.3132,-0.03976 0.002,2.822369 -0.002,1.957792 z"
           id="path28-8"
           style="fill:#1a3e52;fill-opacity:1;stroke-width:0.264583"
           sodipodi:nodetypes="ccccssccccc" /></g><text
         xml:space="preserve"
         style="font-size:10.5447px;text-align:start;writing-mode:lr-tb;direction:ltr;text-anchor:start;fill:#1a3e52;fill-opacity:1;stroke-width:10.8435;stroke-linecap:round;filter:url(#filter83)"
         x="337.06586"
         y="697.46429"
         id="text2"
         transform="matrix(0.26458333,0,0,0.26458333,-38.941611,-50.7135)"><tspan
           sodipodi:role="line"
           id="tspan2"
           x="337.06586"
           y="697.46429"
           style="font-style:normal;font-variant:normal;font-weight:normal;font-stretch:normal;font-size:65.611px;font-family:Montserrat;-inkscape-font-specification:'Montserrat, @wght=700';font-variant-ligatures:normal;font-variant-caps:normal;font-variant-numeric:normal;font-variant-east-asian:normal;font-variation-settings:'wght' 700;fill:#1a3e52;fill-opacity:1;stroke-width:10.8435">FARINGTON</tspan></text><text
         xml:space="preserve"
         style="font-style:normal;font-variant:normal;font-weight:300;font-stretch:normal;font-size:42.6667px;font-family:Avenir;-inkscape-font-specification:'Avenir, Light';font-variant-ligatures:normal;font-variant-caps:normal;font-variant-numeric:normal;font-variant-east-asian:normal;text-align:start;writing-mode:lr-tb;direction:ltr;text-anchor:start;fill:#000000;fill-opacity:1;fill-rule:nonzero;stroke-width:12.34015764;stroke-linecap:round;filter:url(#filter102);stroke-dasharray:none"
         x="388.48053"
         y="755.38354"
         id="text1"
         transform="matrix(0.26458333,0,0,0.26458333,-38.941614,-50.7135)"><tspan
           sodipodi:role="line"
           id="tspan1"
           x="388.48053"
           y="755.38354">CONSULTANCY</tspan></text></g></g></svg>
