<svg viewBox="80 28 70 80" xmlns="http://www.w3.org/2000/svg">
  <path fill="#1a3e52" d="m 140.74458,74.767272 c 0.0409,2.967947 0.0686,5.829601 0.12175,8.690773 0.0181,0.975892 -0.4298,1.374916 -1.37845,1.26854 -0.26271,-0.02946 -0.52664,-0.05033 -0.79049,-0.06729 -2.89133,-0.185441 -2.88654,-0.185034 -2.90078,-3.151481 -0.0367,-7.655653 -0.09,-15.311271 -0.10143,-22.966953 -0.001,-0.875326 -0.28152,-1.494776 -0.93115,-2.061001 -6.50999,-5.674285 -13.01868,-11.350259 -19.48626,-17.072663 -0.79222,-0.689517 -1.43087,-0.485841 -2.12146,0.135536 l -16.510818,14.25071 -1.99897,1.720455 c -1.71149,1.473026 -2.14533,2.864753 -2.12233,4.850734 0.0872,7.525371 0.10091,15.051627 0.13375,22.577594 0.007,1.671539 -0.0803,1.788504 -1.79196,1.762974 -3.49688,-0.0522 -3.23804,0.700744 -3.25015,-3.209425 -0.0193,-6.248458 -0.0281,-12.496985 -0.0177,-18.745435 0.002,-1.071399 -0.26468,-1.481408 -1.51914,-1.523921 -4.79458,-0.162483 0.0302,0.03018 -4.78911,-0.151781 l 27.979228,-25.072967 4.73299,-4.111344 5.08949,4.111344 c 8.90572,7.540884 18.15657,16.181816 26.94594,23.860056 0.29238,0.255418 0.65309,0.472395 0.63441,1.164193 -1.38862,0.02064 -2.79388,0.06444 -4.19885,0.0565 -1.70645,-0.0097 -1.66193,-0.02635 -1.7456,1.702337 -0.19172,3.959934 0.0734,7.917371 0.0171,11.98236 z"/>
  <path fill="#1a3e52" d="m 104.52823,52.946328 c 2.86524,-2.815186 5.70615,-5.522527 8.43397,-8.339382 0.9533,-0.984406 1.54268,-0.897202 2.45255,0.0029 5.13723,5.081786 10.26207,10.179165 15.52707,15.126568 1.3865,1.30287 1.91827,2.578968 1.90609,4.435719 -0.0401,6.118476 0.0925,12.238 0.14996,18.357209 0.0195,2.08398 -0.0318,2.190316 -2.06473,2.143315 -3.13859,-0.07257 -2.85996,0.575331 -2.90336,-2.7569 -0.0733,-5.62974 -0.0759,-11.260391 -0.12447,-16.89051 -0.006,-0.735058 0.002,-1.456145 -0.62822,-2.066645 -3.98663,-3.864409 -7.96455,-7.738565 -11.88813,-11.666664 -0.84522,-0.846185 -1.34419,-0.737277 -2.13813,0.04015 -3.96655,3.884055 -7.97952,7.720857 -11.9939,11.555728 -0.54615,0.521724 -0.78064,1.04241 -0.77383,1.836324 0.0531,6.203874 0.0291,12.408382 0.0601,18.612546 0.005,0.992407 -0.32612,1.503249 -1.370238,1.402821 -0.30668,-0.02949 -0.6159,-0.04732 -0.92388,-0.04629 -3.30963,0.01066 -2.66299,0.138162 -2.68982,-2.924889 -0.0547,-6.24691 -0.0218,-12.494642 -0.0919,-18.741285 -0.0106,-0.939969 0.27855,-1.573989 0.92428,-2.19253 2.70514,-2.591196 5.381108,-5.212832 8.136548,-7.888107 z"/>
  <path fill="#1a3e52" d="m 106.62168,92.251602 c -0.22287,-9.671121 -0.19819,-19.099903 -0.17429,-28.472593 0.002,-0.786836 0.2858,-1.022678 0.9779,-1.027353 l 16.2319,-0.120639 c 0.71862,-0.0053 1.05601,0.330472 1.06555,1.031592 5.3e-4,0.044 0.004,0.08798 0.007,0.131945 -0.006,0.502102 0.039,-0.03253 0.01,3.803695 0,0 -2.86006,0.01685 -3.45054,0.01082 l -7.90953,-0.08098 c -1.65315,-0.01693 -1.58221,0.03536 -1.55298,1.80105 l 0.0176,1.06403 c 0.0383,2.31013 0.28365,2.552078 1.48922,2.540021 l 5.93817,-0.05938 c 1.33774,-0.01339 1.12316,0.09911 1.13695,1.373817 l 0.0371,3.434395 -5.14916,0.03297 c -0.92294,0.0059 -1.84661,0.04824 -2.7685,0.02217 -0.76238,-0.02154 -0.98271,0.328184 -0.97149,1.044469 0.055,3.5155 0.0809,7.031487 0.10925,10.547371 0.0145,1.803519 -0.001,3.607401 0.0245,5.410721 0.006,0.406249 0.002,1.188723 -0.009,1.187985 l -1.06688,-0.02289 h -1.38296 c -1.66227,-0.01447 -2.6278,-0.01595 -2.6278,-0.01595 0.0328,-3.667885 -0.0155,-1.881931 0.0173,-3.637317 z"/>
  <path fill="#1a3e52" d="m 146.20447,86.572308 c 0.56876,1.426636 0.31071,2.842027 0.33842,4.232584 0.0137,0.686324 -0.62881,0.557713 -1.11515,0.560147 -4.70701,0.02373 -9.41391,0.06621 -14.12093,0.08782 -4.75093,0.0218 -9.50238,-0.0045 -14.25262,0.06131 -1.06694,0.01479 -1.40481,-0.354769 -1.39954,-1.366911 0.0133,-2.553483 -0.009,-5.108102 -0.0799,-7.66054 -0.027,-0.976251 0.30269,-1.359429 1.29638,-1.288245 0.91973,0.0659 1.84906,0.0021 2.77405,-0.01236 0.65248,-0.01021 0.95568,0.25087 0.9337,0.952865 -0.0317,1.011663 0.0601,2.027049 0.032,3.038985 -0.0268,0.966283 0.36812,1.323256 1.34182,1.308653 4.53435,-0.06798 9.06853,0.03504 13.6051,-0.0939 3.51268,-0.09985 7.033,0.06928 10.64669,0.179594 z"/>
  <path fill="#1a3e52" d="m 91.744282,91.41513 c -3.0151,-0.0083 -5.916,-0.06619 -8.81261,0.02 -1.06862,0.03181 -1.31305,-0.383873 -1.26309,-1.297215 0.0383,-0.701643 0.11969,-1.422625 0.007,-2.106144 -0.21344,-1.293767 0.39133,-1.577583 1.52729,-1.576258 6.54525,0.0076 13.09078,-0.0016 19.635588,-0.06625 1.07509,-0.01061 1.4544,0.295984 1.48621,1.386345 0.10393,3.560688 0.14032,3.581067 -3.37592,3.623956 -3.029138,0.03695 -6.058948,0.01757 -9.204388,0.01556 z"/>
  <path fill="#1a3e52" d="m 97.502542,44.101156 -1.74428,0.100758 -0.0634,2.655324 -5.16484,4.137867 0.0369,-10.053051 c 0.004,-1.150202 0.15036,-1.705887 1.57581,-1.727967 l 6.89434,-0.006 1.313198,-0.03976 -0.002,2.822369 0.002,1.957792 z"/>
  <path fill="#1a3e52" d="m 131.26203,44.101156 1.74428,0.100758 0.0634,2.655324 5.16484,4.137867 -0.0369,-10.053051 c -0.004,-1.150202 -0.15036,-1.705887 -1.57581,-1.727967 l -6.89434,-0.006 -1.3132,-0.03976 0.002,2.822369 -0.002,1.957792 z"/>
</svg>
