<svg preserveAspectRatio="xMidYMid meet" data-bbox="20.381 95.072 2484.345 405.879" xmlns="http://www.w3.org/2000/svg" viewBox="0 0 2593.333 514.667" height="514.667" width="2593.333" data-type="ugc" role="presentation" aria-hidden="true" aria-label="">
    <g>
        <defs>
            <linearGradient id="85d2eb7e-5e24-4080-bb4b-160447de170d_comp-kbgakxea_r_comp-mk3bw3mq" spreadMethod="pad" gradientTransform="matrix(1805.4106 0 0 -1805.4106 15.286 162.492)" gradientUnits="userSpaceOnUse" y2="0" x2="1" y1="0" x1="0">
                <stop offset="0" stop-color="#66c1c0"></stop>
                <stop offset="1" stop-color="#2978bc"></stop>
            </linearGradient>
            <clipPath id="940b8c52-513b-4996-9644-adc0ce282d52_comp-kbgakxea_r_comp-mk3bw3mq" clipPathUnits="userSpaceOnUse">
                <path d="M-1856.566 89.2h1945v-386h-1945Z"></path>
            </clipPath>
        </defs>
        <path clip-path="url(#940b8c52-513b-4996-9644-adc0ce282d52_comp-kbgakxea_r_comp-mk3bw3mq)" transform="matrix(1.33333 0 0 -1.33333 2475.421 118.934)" d="M0 0h4.437q1.329-.001 2.188.646.853.664.854 2-.001 1.328-.854 1.937-.86.625-2.188.625H0Zm11.542 2.729c0-1.573-.448-2.875-1.334-3.916Q8.896-2.751 6.521-3.229l5.687-8.146-4.833-.104-5.208 8.062H0v-8.062h-4.083V8.896h8.812q3.124-.001 4.959-1.667 1.852-1.649 1.854-4.5M3.313-17.25q6.81 0 11.02 4.437 4.228 4.454 4.229 11.376-.001 6.914-4.229 11.375c-2.807 2.968-6.479 4.458-11.02 4.458-4.615 0-8.329-1.49-11.146-4.458q-4.21-4.461-4.209-11.375-.002-6.923 4.209-11.376 4.225-4.437 11.146-4.437m0 34.854c3.593 0 6.796-.823 9.604-2.458q4.225-2.461 6.645-6.813 2.416-4.358 2.417-9.77-.001-5.397-2.417-9.709c-1.614-2.875-3.828-5.135-6.645-6.771q-4.213-2.459-9.604-2.458-5.4-.001-9.667 2.458c-2.849 1.636-5.078 3.896-6.688 6.771q-2.397 4.312-2.396 9.709-.001 5.412 2.396 9.77 2.415 4.352 6.688 6.813c2.844 1.635 6.068 2.458 9.667 2.458" fill="#1e68b6"></path>
        <path transform="matrix(1.33333 0 0 -1.33333 0 514.667)" d="M1760.964 314.697V175.431c-15.789 15.071-36.694 24.247-59.625 24.247-44.253 0-80.963-34.168-87.903-78.949v.001c0 62.051-44.418 78.895-77.686 78.895s-53.464-25.125-53.464-25.125v19.715h-61.607V16.143h61.607v102.723c0 3.804.909 7.562 2.733 10.9 5.719 10.472 17.392 21.806 33.695 21.806 19.607 0 32.786-14.304 32.786-35.197V16.143h61.936V89.95c6.94-44.782 43.65-78.95 87.903-78.95 22.931 0 43.836 9.177 59.625 24.248V15.447h59.732v299.25zm-83.357-210.055c0 23.567 19.104 42.671 42.671 42.671 23.566 0 42.671-19.104 42.671-42.671 0-23.566-19.105-42.671-42.671-42.671-23.567 0-42.671 19.105-42.671 42.671M653.322 314.697V175.431c-15.79 15.071-36.695 24.247-59.625 24.247-39.514 0-73.014-27.242-84.677-64.956-10.065 39.511-43.437 64.849-91.413 64.849-61.929 0-98.464-50.893-98.464-93.321S351.607 11 419.75 11s89.036 45.535 89.036 45.535L464.964 79.25s-12.589-21.053-40.393-21.053c-31.143 0-40.763 20.775-43.264 38.731h123.657C508.982 48.767 547.171 11 593.697 11c22.93 0 43.835 9.177 59.625 24.248V15.447h59.732v299.25zM415.673 159.928c29.673 0 37.506-19.285 37.506-30.535h-70.333c3.69 15.554 12.67 30.535 32.827 30.535m154.292-55.286c0 23.567 19.104 42.671 42.67 42.671s42.671-19.104 42.671-42.671c0-23.566-19.104-42.671-42.671-42.671-23.566 0-42.67 19.105-42.67 42.671m147.863 5.387c6.956 1.401 41.644 8.902 60.957 22.739 20.243 14.502 31.112 49.447 34.214 67.072a85 85 0 0 1-6.169.249c-47.693 0-86.635-39.897-89.002-90.06m225.594 33.185c0-30.429 23.319-44.357 41.399-51.75 18.08-7.392 27.804-8.357 33.108-15.107s4.097-20.33-17.759-20.33-43.956 20.009-43.956 20.009l-24.991-41.867C959.268 9.339 1019.214 5 1051.035 19.143c26.84 11.929 34.027 33.332 32.102 55.723 8.592-23.761 26.599-44.943 52.006-55.08 43.5-17.358 80.785-5.14 100.178 7.394l-20.464 41.249s-13.794-11.357-39.589-6.857-41.947 37.125-30.054 62.196 39.215 34.232 69.59 18.16l20.624 40.715s-17.893 16.928-60.964 16.928-84.535-33.428-94.607-73.071c-2.609-10.27-3.057-21.216-1.56-32.101-10.006 19.276-35.483 29.57-44.217 32.342-10.125 3.214-20.651 5.866-27.321 9.562-6.67 3.697-10.849 20.491 14.304 20.491 25.151 0 39.187-10.687 39.187-10.687l20.679 39.643c-7.179 4.072-28.447 13.875-56.894 13.875-53.356 0-80.613-25.982-80.613-56.411m279.899-36.964c0-42.428 32.464-95.25 100.608-95.25 68.142 0 89.035 45.535 89.035 45.535l-43.821 22.715s-12.589-21.053-40.393-21.053c-31.144 0-40.764 20.775-43.264 38.731h130.371c5.464 60.429-32.143 102.643-94.071 102.643-61.929 0-98.465-50.893-98.465-93.321m96.531 53.678c29.673 0 37.505-19.285 37.505-30.535h-70.332c3.69 15.554 12.669 30.535 32.827 30.535m-1128.745 7.394c-10.607 16.499-29.25 32.249-60 32.249-29.608 0-48.811-18.613-54.964-25.584V194H15.286V15.714h60.621l.236-.428v104.893c0 16.745 13.575 30.321 30.322 30.321 16.745 0 30.321-13.576 30.321-30.321V15.286h61.929v104.893c0 16.745 13.574 30.321 30.321 30.321 16.746 0 30.321-13.576 30.321-30.321V15.286h59.786v122.571c0 34.286-24.857 61.714-66 61.714s-62.036-32.249-62.036-32.249m659.197-23.304c14.189-16.966 39.93-27.417 76.5-34.482v84.625h-61.715v-17.159c-10.621 9.779-23.437 16.923-37.551 20.5.05-.22 8.026-35.86 22.766-53.484m6.75-70.554c-20.544-19.637-26.037-45.973-29.293-60.53 14.026 3.596 26.764 10.712 37.328 20.44V15.5h61.715v85.928s-47.894-7.071-69.75-27.964M806.83 10.287c2.108 0 4.192.103 6.264.256-1.227 6.461-7.366 34.782-24.344 57.135-16.644 21.915-59.496 30.781-70.926 32.799 2.306-50.224 41.272-90.19 89.006-90.19" fill="url(#85d2eb7e-5e24-4080-bb4b-160447de170d_comp-kbgakxea_r_comp-mk3bw3mq)"></path>
    </g>
</svg>
